<?xml version="1.0" encoding="utf-8"?>
<!-- Generator: Adobe Illustrator 16.0.0, SVG Export Plug-In . SVG Version: 6.00 Build 0)  -->
<!DOCTYPE svg PUBLIC "-//W3C//DTD SVG 1.1//EN" "http://www.w3.org/Graphics/SVG/1.1/DTD/svg11.dtd">
<svg version="1.1" id="Capa_1" xmlns="http://www.w3.org/2000/svg" xmlns:xlink="http://www.w3.org/1999/xlink" x="0px" y="0px"
	 width="512px" height="512px" viewBox="0 0 512 512" enable-background="new 0 0 512 512" xml:space="preserve">
<path fill="#0380A5" d="M510.895,184.14l-20.104-32.815l20.518-44.44c1.299-2.81,0.735-6.128-1.415-8.354
	c-2.149-2.227-5.447-2.902-8.3-1.703c-1.865,0.784-3.651,1.584-5.38,2.359c-8.746,3.918-17.006,7.619-34.672,8.668
	c-17.711,1.052-26.72-1.637-36.255-4.485c-8.952-2.673-18.178-5.419-33.645-5.34V85.966c9.307-3.139,16.027-11.943,16.027-22.294
	c0-12.973-10.554-23.527-23.527-23.527c-12.973,0-23.526,10.554-23.526,23.527c0,10.351,6.722,19.155,16.026,22.294v291.985
	c-9.306,3.139-16.026,11.943-16.026,22.294v56.609H239.383v-56.609c0-10.407-6.795-19.252-16.179-22.347V197.347
	c13.313-0.069,21.144,2.259,29.351,4.711c8.826,2.636,17.906,5.348,32.979,5.348c2.627,0,5.437-0.083,8.458-0.262
	c20.404-1.213,30.322-5.656,39.914-9.953c1.666-0.747,3.332-1.493,5.062-2.22c2.017-0.848,3.563-2.533,4.232-4.615
	c0.671-2.082,0.398-4.353-0.744-6.217l-20.104-32.815l20.519-44.44c1.298-2.81,0.735-6.128-1.415-8.354
	c-2.15-2.228-5.447-2.902-8.3-1.703c-1.865,0.784-3.652,1.584-5.38,2.359c-8.746,3.918-17.007,7.619-34.672,8.668
	c-17.717,1.052-26.72-1.637-36.254-4.485c-8.952-2.673-18.181-5.419-33.645-5.34V85.966c9.306-3.139,16.027-11.943,16.027-22.294
	c0-12.973-10.554-23.527-23.527-23.527s-23.527,10.554-23.527,23.527c0,10.351,6.722,19.155,16.027,22.294v292.037
	c-9.227,3.185-15.875,11.949-15.875,22.243v56.609H70.944v-56.609c0-10.352-6.722-19.155-16.027-22.294V197.351
	c2.777-0.015,5.422,0.064,7.952,0.258c0.196,0.015,0.389,0.022,0.582,0.022c3.881,0,7.168-2.992,7.47-6.927
	c0.317-4.13-2.774-7.735-6.904-8.052c-2.92-0.224-5.938-0.324-9.1-0.309V113.03c13.312-0.068,21.144,2.259,29.352,4.71
	c10.364,3.096,21.083,6.297,41.437,5.086c12.02-0.714,20.4-2.549,27.219-4.815l-14.159,30.667c-1.051,2.275-0.896,4.925,0.414,7.063
	l17.716,28.917c-7.881,3.47-16.162,6.567-32.08,7.514c-13.499,0.803-21.5-0.588-27.549-2.055c-4.029-0.975-8.08,1.498-9.055,5.523
	s1.497,8.08,5.523,9.055c5.421,1.313,12.79,2.707,23.623,2.707c2.579,0,5.356-0.079,8.348-0.257
	c20.404-1.213,30.322-5.656,39.914-9.953c1.666-0.747,3.332-1.493,5.062-2.22c2.016-0.848,3.562-2.533,4.232-4.614
	c0.671-2.082,0.399-4.353-0.744-6.218l-20.104-32.815l20.518-44.44c1.298-2.81,0.735-6.128-1.415-8.354s-5.448-2.902-8.3-1.703
	c-1.865,0.784-3.652,1.584-5.38,2.359c-8.746,3.918-17.006,7.619-34.672,8.668c-17.714,1.052-26.719-1.637-36.254-4.485
	c-8.951-2.673-18.179-5.419-33.644-5.34V85.966c9.306-3.139,16.027-11.943,16.027-22.294c0-12.973-10.554-23.527-23.527-23.527
	s-23.53,10.554-23.53,23.527c0,10.351,6.722,19.155,16.028,22.294v291.985c-9.306,3.139-16.028,11.943-16.028,22.294v56.609H7.5
	c-4.142,0-7.5,3.357-7.5,7.5c0,4.142,3.358,7.5,7.5,7.5h416.711c4.142,0,7.5-3.358,7.5-7.5c0-4.143-3.358-7.5-7.5-7.5H407.67
	v-56.609c0-10.351-6.722-19.155-16.027-22.294v-180.6c2.777-0.015,5.423,0.064,7.953,0.258c0.196,0.015,0.39,0.022,0.582,0.022
	c3.881,0,7.168-2.992,7.471-6.927c0.316-4.13-2.774-7.735-6.904-8.052c-2.92-0.224-5.938-0.324-9.101-0.309V113.03
	c13.313-0.069,21.145,2.259,29.353,4.71c10.363,3.095,21.079,6.296,41.437,5.086c12.021-0.714,20.4-2.549,27.22-4.815
	l-14.159,30.667c-1.051,2.275-0.896,4.925,0.414,7.063l17.716,28.917c-7.881,3.47-16.162,6.567-32.08,7.514
	c-13.498,0.803-21.5-0.588-27.549-2.055c-4.03-0.975-8.08,1.498-9.055,5.523c-0.976,4.025,1.496,8.08,5.522,9.055
	c5.421,1.313,12.79,2.707,23.623,2.707c2.579,0,5.356-0.079,8.348-0.257c20.404-1.213,30.322-5.656,39.914-9.953
	c1.666-0.747,3.332-1.493,5.063-2.22c2.016-0.848,3.562-2.533,4.231-4.614C512.31,188.275,512.038,186.004,510.895,184.14z
	 M384.143,55.145c4.702,0,8.527,3.825,8.527,8.527s-3.825,8.527-8.527,8.527c-4.701,0-8.526-3.825-8.526-8.527
	S379.44,55.145,384.143,55.145z M252.555,117.741c10.363,3.096,21.082,6.297,41.437,5.086c12.02-0.714,20.399-2.549,27.219-4.815
	l-14.159,30.667c-1.051,2.275-0.896,4.925,0.414,7.063l17.716,28.917c-7.881,3.47-16.162,6.567-32.08,7.514
	c-17.713,1.052-26.719-1.638-36.254-4.485c-8.952-2.673-18.181-5.419-33.644-5.34v-69.315
	C236.515,112.962,244.347,115.29,252.555,117.741z M215.704,55.145c4.702,0,8.527,3.825,8.527,8.527s-3.825,8.527-8.527,8.527
	c-4.702,0-8.527-3.825-8.527-8.527S211.001,55.145,215.704,55.145z M215.855,391.719c4.702,0,8.527,3.825,8.527,8.527v24.555
	h-17.055v-24.555C207.328,395.544,211.153,391.719,215.855,391.719z M207.328,439.801h17.055v17.056h-17.055V439.801z
	 M47.417,55.145c4.702,0,8.527,3.825,8.527,8.527s-3.825,8.527-8.527,8.527s-8.528-3.825-8.528-8.527S42.714,55.145,47.417,55.145z
	 M47.417,391.719c4.702,0,8.527,3.825,8.527,8.527v24.555H38.889v-24.555C38.889,395.544,42.714,391.719,47.417,391.719z
	 M38.889,439.801h17.055v17.056H38.889V439.801z M375.615,456.856v-17.056h17.055v17.056H375.615z M392.67,424.801h-17.055v-24.555
	c0-4.702,3.825-8.527,8.526-8.527c4.702,0,8.527,3.825,8.527,8.527L392.67,424.801L392.67,424.801z"/>
</svg>
