<?xml version="1.0" encoding="utf-8"?>
<!-- Generator: Adobe Illustrator 16.0.0, SVG Export Plug-In . SVG Version: 6.00 Build 0)  -->
<!DOCTYPE svg PUBLIC "-//W3C//DTD SVG 1.1//EN" "http://www.w3.org/Graphics/SVG/1.1/DTD/svg11.dtd">
<svg version="1.1" id="Capa_1" xmlns="http://www.w3.org/2000/svg" xmlns:xlink="http://www.w3.org/1999/xlink" x="0px" y="0px"
	 width="512px" height="512px" viewBox="0 0 512 512" enable-background="new 0 0 512 512" xml:space="preserve">
<path fill="#0380A5" d="M495.397,44.71c-1.161-2.802-3.896-4.63-6.93-4.63h-32.581V7.5c0-3.033-1.827-5.769-4.63-6.929
	c-2.801-1.16-6.028-0.519-8.173,1.626L386.971,58.31c-1.406,1.406-2.196,3.314-2.196,5.303v36.974l-19.307,19.307
	c-37.142-34.576-86.905-55.765-141.532-55.765c-114.638,0-207.903,93.265-207.903,207.903c0,69.935,34.711,131.913,87.808,169.618
	L65.356,500.39c-2.27,3.465-1.301,8.114,2.163,10.385c1.268,0.83,2.693,1.228,4.104,1.228c2.444,0,4.841-1.194,6.28-3.391
	l38.472-58.721c31.4,19.062,68.222,30.045,107.561,30.045c39.339,0,76.161-10.984,107.561-30.045l38.472,58.721
	c1.439,2.197,3.836,3.391,6.28,3.391c1.41,0,2.836-0.397,4.104-1.228c3.465-2.271,4.434-6.92,2.163-10.385l-38.483-58.739
	c53.097-37.705,87.808-99.684,87.808-169.618c0-54.627-21.188-104.391-55.764-141.532l19.306-19.307h36.974
	c1.989,0,3.897-0.79,5.304-2.196l56.112-56.113C495.916,50.739,496.558,47.512,495.397,44.71z M416.839,272.032
	c0,106.366-86.536,192.902-192.903,192.902c-106.367,0-192.904-86.536-192.904-192.902c0-106.367,86.537-192.903,192.904-192.903
	c50.491,0,96.505,19.509,130.925,51.372l-23.406,23.406c-28.408-25.881-66.153-41.681-107.519-41.681
	c-88.118,0-159.807,71.689-159.807,159.807c0,43.964,18.393,86.441,50.462,116.542c3.021,2.834,7.767,2.685,10.602-0.335
	c2.834-3.021,2.684-7.768-0.336-10.602c-29.488-27.678-45.728-65.183-45.728-105.605c0-79.847,64.96-144.807,144.807-144.807
	c37.23,0,71.221,14.127,96.902,37.298l-57.568,57.569c-10.833-8.551-24.493-13.673-39.333-13.673
	c-35.076,0-63.613,28.537-63.613,63.613s28.537,63.613,63.613,63.613c35.076,0,63.613-28.537,63.613-63.613
	c0-14.842-5.123-28.5-13.673-39.333l23.532-23.532c15.016,17.515,23.238,39.623,23.238,62.865c0,53.326-43.385,96.71-96.709,96.71
	c-53.326,0-96.71-43.384-96.71-96.71s43.384-96.71,96.71-96.71c15.75,0,30.766,3.664,44.631,10.891
	c3.671,1.915,8.203,0.488,10.117-3.185c1.914-3.673,0.488-8.203-3.186-10.117c-15.801-8.235-33.631-12.589-51.563-12.589
	c-61.597,0-111.71,50.113-111.71,111.71c0,61.597,50.113,111.71,111.71,111.71s111.709-50.113,111.709-111.71
	c0-27.239-9.763-53.141-27.594-73.51l23.393-23.393c23.17,25.682,37.297,59.672,37.297,96.902
	c0,79.847-64.96,144.807-144.806,144.807c-25.7,0-50.941-6.817-72.994-19.715c-3.574-2.09-8.169-0.888-10.26,2.688
	c-2.091,3.576-0.888,8.168,2.688,10.26c24.348,14.239,52.207,21.767,80.566,21.767c88.117,0,159.806-71.688,159.806-159.807
	c0-41.366-15.8-79.111-41.68-107.519l23.405-23.406C397.331,175.527,416.839,221.541,416.839,272.032z M272.549,272.032
	c0,26.806-21.808,48.612-48.613,48.612s-48.613-21.808-48.613-48.612c0-26.805,21.808-48.613,48.613-48.613
	c10.702,0,20.601,3.484,28.64,9.366l-33.943,33.943c-2.929,2.929-2.929,7.677,0,10.605c1.464,1.464,3.384,2.197,5.303,2.197
	s3.839-0.732,5.303-2.197l33.943-33.943C269.064,251.431,272.549,261.33,272.549,272.032z M429.249,96.193h-18.868l19.261-19.261
	c2.93-2.929,2.93-7.678,0-10.606c-2.929-2.93-7.678-2.93-10.605,0l-19.261,19.261V66.719l41.112-41.113V47.58
	c0,4.142,3.358,7.5,7.5,7.5h21.975L429.249,96.193z"/>
</svg>
