<?xml version="1.0" encoding="utf-8"?>
<!-- Generator: Adobe Illustrator 16.0.0, SVG Export Plug-In . SVG Version: 6.00 Build 0)  -->
<!DOCTYPE svg PUBLIC "-//W3C//DTD SVG 1.1//EN" "http://www.w3.org/Graphics/SVG/1.1/DTD/svg11.dtd">
<svg version="1.1" id="Capa_1" xmlns="http://www.w3.org/2000/svg" xmlns:xlink="http://www.w3.org/1999/xlink" x="0px" y="0px"
	 width="512px" height="512px" viewBox="0 0 512 512" enable-background="new 0 0 512 512" xml:space="preserve">
<g>
	<path fill="#0380A5" d="M424.347,400.807H311.604v-2.968c0-9.327,5.438-17.981,13.852-22.048
		c26.667-12.887,49.218-32.887,65.217-57.838c16.448-25.652,25.143-55.391,25.143-86c0-29.022-7.86-57.445-22.731-82.194
		c-2.133-3.551-6.741-4.7-10.292-2.566c-3.55,2.133-4.699,6.741-2.566,10.292c13.47,22.417,20.589,48.167,20.589,74.468
		c0,27.734-7.874,54.673-22.771,77.904c-14.503,22.619-34.945,40.748-59.116,52.429c-13.562,6.553-22.323,20.509-22.323,35.554
		v2.969h-33.098V262.9c16.852-2.495,35.449-12.733,51.14-28.423c18.086-18.086,28.936-40.039,29.021-58.723
		c0.009-2.001-0.782-3.923-2.197-5.338c-1.406-1.407-3.313-2.197-5.303-2.197c-0.012,0-0.022,0-0.035,0
		c-18.685,0.087-40.637,10.938-58.722,29.023c-5.283,5.283-9.943,10.897-13.904,16.663v-14.018
		c0-21.816-17.749-39.563-39.564-39.563c-4.142,0-7.5,3.358-7.5,7.5c0,4.142,3.358,7.5,7.5,7.5c13.545,0,24.564,11.02,24.564,24.563
		v78.147c-3.96-5.765-8.621-11.38-13.904-16.663c-18.086-18.086-40.039-28.936-58.723-29.022c-2.027-0.024-3.923,0.781-5.338,2.197
		c-1.415,1.415-2.206,3.337-2.197,5.338c0.087,18.685,10.937,40.638,29.022,58.724c15.689,15.689,34.287,25.928,51.139,28.424
		v73.775h-33.097v-2.942c0-15.128-8.554-28.993-21.791-35.323c-26.102-12.482-47.682-32.249-62.407-57.163
		c-15.212-25.737-21.963-55.297-19.523-85.48c2.666-32.983,17.035-64.468,40.458-88.656c23.437-24.201,54.435-39.535,87.285-43.175
		c45.568-5.048,89.747,10.907,121.207,43.78c2.864,2.993,7.612,3.097,10.604,0.233c2.993-2.864,3.097-7.611,0.232-10.604
		C336.76,85.199,288.029,67.588,237.78,73.157c-36.31,4.024-70.548,20.946-96.408,47.649c-25.837,26.68-41.688,61.441-44.634,97.882
		c-2.69,33.287,4.765,65.902,21.562,94.321c16.245,27.486,40.052,49.293,68.849,63.063c8.057,3.853,13.263,12.406,13.263,21.791
		v2.943H87.669c-4.142,0-7.5,3.357-7.5,7.5c0,4.141,3.358,7.5,7.5,7.5h112.742v40.597c0,12.976,10.557,23.531,23.532,23.531h0.516
		v8.532c0,12.977,10.557,23.532,23.532,23.532h16.032c12.976,0,23.531-10.557,23.531-23.532v-8.532h0.516
		c12.977,0,23.533-10.557,23.533-23.531v-40.597h112.741c4.143,0,7.5-3.359,7.5-7.5
		C431.845,404.164,428.489,400.807,424.347,400.807z M288.018,207.849c12.303-12.302,26.814-20.842,39.659-23.637
		c-2.795,12.843-11.335,27.356-23.637,39.659c-12.302,12.302-26.815,20.842-39.659,23.637
		C267.176,234.664,275.716,220.151,288.018,207.849z M207.976,288c-12.302-12.302-20.842-26.814-23.637-39.659
		c12.844,2.795,27.356,11.335,39.659,23.638c12.302,12.302,20.842,26.814,23.637,39.658
		C234.791,308.842,220.277,300.302,207.976,288z M272.557,488.468c0,4.705-3.828,8.532-8.533,8.532h-16.031
		c-4.705,0-8.532-3.827-8.532-8.532v-8.532h33.097V488.468L272.557,488.468z M296.604,432.871h-8.533c-4.141,0-7.5,3.358-7.5,7.5
		s3.359,7.5,7.5,7.5h8.533v8.532c0,4.705-3.828,8.531-8.531,8.531h-64.129c-4.705,0-8.532-3.827-8.532-8.531v-8.532h40.597
		c4.143,0,7.5-3.358,7.5-7.5s-3.357-7.5-7.5-7.5h-40.597v-17.064h81.192V432.871z"/>
	<path fill="#0380A5" d="M256.008,55.081c4.143,0,7.5-3.358,7.5-7.5V7.5c0-4.142-3.357-7.5-7.5-7.5c-4.142,0-7.5,3.358-7.5,7.5
		v40.081C248.508,51.723,251.866,55.081,256.008,55.081z"/>
	<path fill="#0380A5" d="M120.334,106.885c1.464,1.464,3.384,2.197,5.303,2.197c1.919,0,3.839-0.732,5.303-2.197
		c2.929-2.929,2.929-7.678,0-10.606l-13.92-13.922c-2.929-2.929-7.678-2.929-10.606,0c-2.929,2.929-2.929,7.678,0,10.606
		L120.334,106.885z"/>
	<path fill="#0380A5" d="M386.378,109.082c1.919,0,3.839-0.732,5.303-2.197l13.92-13.92c2.93-2.929,2.93-7.678,0-10.606
		c-2.929-2.929-7.678-2.929-10.605,0l-13.92,13.92c-2.929,2.929-2.929,7.678,0,10.606
		C382.539,108.349,384.458,109.082,386.378,109.082z"/>
	<path fill="#0380A5" d="M439.29,156.034c-1.585-3.827-5.973-5.644-9.799-4.059l-6.018,2.492c-3.826,1.585-5.644,5.973-4.059,9.799
		c1.196,2.888,3.989,4.632,6.932,4.632c0.957,0,1.93-0.184,2.867-0.573l6.018-2.492C439.058,164.248,440.875,159.86,439.29,156.034z
		"/>
	<path fill="#0380A5" d="M178.523,64.485c1.196,2.888,3.989,4.632,6.932,4.632c0.957,0,1.929-0.184,2.867-0.573
		c3.827-1.585,5.644-5.973,4.059-9.799L179.928,28.68c-1.585-3.827-5.973-5.643-9.799-4.059c-3.827,1.585-5.644,5.973-4.059,9.799
		L178.523,64.485z"/>
	<path fill="#0380A5" d="M85.668,168.898c2.943,0,5.736-1.744,6.932-4.632c1.585-3.827-0.232-8.214-4.059-9.799l-6.032-2.499
		c-3.828-1.584-8.214,0.232-9.799,4.059c-1.585,3.827,0.232,8.214,4.059,9.799l6.032,2.499
		C83.74,168.714,84.712,168.898,85.668,168.898z"/>
	<path fill="#0380A5" d="M323.693,68.544c0.938,0.389,1.91,0.573,2.866,0.573c2.943,0,5.736-1.744,6.933-4.632l12.453-30.065
		c1.585-3.827-0.232-8.214-4.06-9.799c-3.828-1.586-8.214,0.232-9.799,4.059l-12.453,30.065
		C318.049,62.572,319.867,66.959,323.693,68.544z"/>
</g>
</svg>
