<?xml version="1.0" encoding="utf-8"?>
<!-- Generator: Adobe Illustrator 16.0.0, SVG Export Plug-In . SVG Version: 6.00 Build 0)  -->
<!DOCTYPE svg PUBLIC "-//W3C//DTD SVG 1.1//EN" "http://www.w3.org/Graphics/SVG/1.1/DTD/svg11.dtd">
<svg version="1.1" id="Capa_1" xmlns="http://www.w3.org/2000/svg" xmlns:xlink="http://www.w3.org/1999/xlink" x="0px" y="0px"
	 width="512px" height="512px" viewBox="0 0 512 512" enable-background="new 0 0 512 512" xml:space="preserve">
<g>
	<path fill="#0380A5" d="M434.813,256.013c5.816-6.486,11.222-13.001,16.177-19.516c32.753-43.073,42.239-81.605,26.714-108.497
		c-11.63-20.143-36.059-31.53-70.646-32.931c-18.403-0.745-39.24,1.342-61.689,6.085c-5.253-16.116-11.324-30.799-18.1-43.593
		C307.326,19.905,282.682,0,256,0c-35.922,0-68.398,36.826-89.392,101.149c-22.417-4.735-43.227-6.821-61.61-6.082
		C70.381,96.458,45.934,107.846,34.297,128c-15.526,26.892-6.039,65.423,26.714,108.497c4.954,6.516,10.36,13.031,16.176,19.516
		c-8.071,8.989-15.329,18.004-21.648,26.951C27.305,322.941,19.762,358.823,34.297,384c12.528,21.7,39.76,33.084,78.015,33.083
		c9.152,0,18.94-0.651,29.303-1.97c8.115-1.032,16.454-2.454,24.973-4.247c2.707,8.272,5.645,16.206,8.808,23.75
		C196.323,484.518,224.948,512,256,512s59.677-27.482,80.604-77.384c3.163-7.543,6.102-15.476,8.809-23.75
		c8.519,1.792,16.857,3.215,24.973,4.247c10.366,1.318,20.148,1.97,29.304,1.97c38.25-0.001,65.486-11.385,78.015-33.083
		c14.536-25.177,6.992-61.059-21.242-101.036C450.142,274.018,442.883,265.002,434.813,256.013z M406.451,110.057
		c20.353,0.824,46.981,5.907,58.261,25.443c12.131,21.012,2.777,54.515-25.664,91.917c-4.465,5.872-9.324,11.746-14.53,17.601
		c-17.254-17.7-37.557-35.143-60.103-51.604c-2.976-27.718-7.98-54.085-14.68-77.865
		C370.454,111.255,389.598,109.378,406.451,110.057z M367.388,236.211c-0.135-4.14-3.599-7.376-7.74-7.251
		c-4.141,0.135-7.387,3.601-7.251,7.741c0.207,6.372,0.313,12.865,0.313,19.299c0,18.537-0.856,36.749-2.52,54.381
		c-2.88,2.045-5.8,4.072-8.749,6.084c-1.367-3.469-3.326-6.669-5.797-9.449V191.642c30.195,20.069,56.997,42.053,78.658,64.37
		c-14.073,14.519-30.25,28.814-48.093,42.526c0.99-13.925,1.499-28.142,1.499-42.538
		C367.709,249.404,367.602,242.746,367.388,236.211z M159.291,256c0-18.554,0.852-36.706,2.525-54.358
		c4.752-3.38,9.599-6.716,14.54-10v115.374c-2.469,2.78-4.427,5.98-5.794,9.45c-2.951-2.012-5.871-4.039-8.75-6.085
		C160.146,292.749,159.291,274.537,159.291,256z M145.789,298.538c-17.842-13.712-34.02-28.009-48.093-42.526
		c14.031-14.456,30.214-28.772,48.086-42.52c-0.987,13.912-1.492,28.094-1.492,42.508
		C144.291,270.396,144.8,284.613,145.789,298.538z M256,119.209c35.646,0,64.645,29,64.645,64.646v13.789
		c-30.99-11.708-75.82-43.586-76.317-43.941c-2.809-2.005-6.621-1.836-9.24,0.409l-43.732,37.484v-7.742
		C191.355,148.209,220.354,119.209,256,119.209z M334.921,173.272c-2.473-18.531-11.334-35.059-24.299-47.3
		c8.339-2.675,16.527-5.044,24.509-7.06c5.422,19.101,9.775,40.238,12.79,62.904C343.654,178.927,339.317,176.079,334.921,173.272z
		 M191.355,211.353l9.048-7.756v12.322c0,18.947,9.533,35.702,24.048,45.743v15.83c0,3.418-2.03,6.497-5.171,7.843l-27.926,11.968
		L191.355,211.353L191.355,211.353z M280.096,207.54c4.141,0,7.5-3.358,7.5-7.5c0-0.547-0.063-1.08-0.174-1.594
		c3.049,1.661,6.118,3.275,9.176,4.815v12.659c0,22.385-18.212,40.598-40.598,40.598c-22.386,0-40.597-18.211-40.597-40.598v-24.048
		c0-0.361-0.034-0.713-0.083-1.06l25.116-21.528c7.155,4.931,21.348,14.446,37.229,23.666c-2.948,1.011-5.07,3.799-5.07,7.09
		C272.596,204.182,275.953,207.54,280.096,207.54z M225.189,299.123c8.664-3.713,14.262-12.204,14.262-21.63v-8.492
		c5.229,1.634,10.788,2.515,16.548,2.515c5.76,0,11.319-0.881,16.548-2.515v8.492c0,9.426,5.598,17.917,14.264,21.63l11.483,4.922
		c-8.547,15.143-24.502,24.617-42.295,24.617c-17.806,0-33.753-9.471-42.297-24.616L225.189,299.123z M292.721,285.335
		c-3.143-1.346-5.172-4.425-5.172-7.843v-15.83c14.516-10.042,24.048-26.796,24.048-45.743v-5.749
		c3.111,1.278,6.142,2.412,9.048,3.359v83.773L292.721,285.335z M200.145,352.743c12.468,7.198,25.034,13.866,37.588,19.971
		c-20.802,8.599-41.277,15.461-60.891,20.39c-5.539-19.449-9.833-40.613-12.787-62.928
		C175.62,337.996,187.677,345.545,200.145,352.743z M207.645,339.753c-8.203-4.735-16.215-9.628-24.023-14.644
		c0.997-5.471,4.654-10.166,9.891-12.411l6.331-2.714c10.962,20.676,32.285,33.678,56.155,33.678
		c23.853,0,45.187-13.008,56.153-33.678l6.333,2.714c5.234,2.243,8.891,6.935,9.89,12.413c-7.807,5.015-15.818,9.906-24.021,14.642
		c-16.054,9.269-32.253,17.633-48.355,25.008C239.898,357.386,223.698,349.021,207.645,339.753z M311.855,352.743
		c12.468-7.198,24.524-14.747,36.089-22.567c-2.954,22.314-7.249,43.479-12.787,62.928c-19.614-4.929-40.089-11.791-60.892-20.39
		C286.82,366.609,299.387,359.941,311.855,352.743z M256,15c29.188,0,56.602,34.712,74.733,89.566
		c-11.261,2.866-22.867,6.366-34.722,10.468C284.245,108.166,270.58,104.21,256,104.21s-28.245,3.956-40.013,10.825
		c-11.854-4.101-23.459-7.603-34.719-10.469C199.851,48.392,227.622,15,256,15z M72.952,227.417
		c-28.441-37.403-37.795-70.906-25.664-91.917c11.286-19.548,37.94-24.627,58.313-25.445c27.033-1.084,59.936,4.413,95.779,15.916
		c-12.966,12.242-21.827,28.77-24.3,47.301c-4.399,2.809-8.738,5.659-13.008,8.548c1.686-12.648,3.806-25.008,6.376-37.023
		c0.867-4.05-1.714-8.037-5.765-8.903c-4.046-0.868-8.036,1.715-8.903,5.765c-3.566,16.67-6.299,33.966-8.209,51.766
		c-22.541,16.458-42.839,33.897-60.089,51.594C82.275,239.164,77.417,233.289,72.952,227.417z M139.723,400.232
		c-46.612,5.931-80.304-2.721-92.435-23.732c-11.441-19.816-4.159-49.961,20.504-84.882c5.765-8.163,12.356-16.394,19.675-24.615
		c17.299,17.767,37.584,35.173,60.105,51.599c2.964,27.717,7.897,53.989,14.634,77.854
		C154.541,398.034,147.032,399.303,139.723,400.232z M322.771,428.815C304.599,472.148,280.262,497,256,497
		c-24.262,0-48.599-24.852-66.771-68.185c-2.85-6.796-5.505-13.933-7.97-21.359c24.036-6.099,49.255-14.963,74.741-26.254
		c25.486,11.291,50.705,20.155,74.741,26.254C328.275,414.883,325.62,422.02,322.771,428.815z M464.712,376.5
		c-12.131,21.011-45.823,29.663-92.435,23.732c-7.311-0.93-14.818-2.198-22.483-3.776c6.737-23.864,11.669-50.138,14.634-77.854
		c22.521-16.425,42.808-33.832,60.105-51.598c7.318,8.221,13.91,16.452,19.675,24.615
		C468.872,326.539,476.153,356.684,464.712,376.5z"/>
	<path fill="#0380A5" d="M266.061,223.194c-1.513,1.848-5.256,3.713-10.212,3.713c-4.956,0-8.7-1.865-10.212-3.712
		c-2.623-3.207-7.348-3.678-10.554-1.056c-3.206,2.623-3.679,7.348-1.056,10.554c4.721,5.77,12.878,9.214,21.821,9.214
		c8.943,0,17.101-3.444,21.821-9.214c2.624-3.206,2.15-7.931-1.055-10.554C273.41,219.517,268.684,219.989,266.061,223.194z"/>
	<circle fill="#0380A5" cx="231.97" cy="200.04" r="7.5"/>
</g>
</svg>
