<?xml version="1.0" encoding="utf-8"?>
<!-- Generator: Adobe Illustrator 16.0.0, SVG Export Plug-In . SVG Version: 6.00 Build 0)  -->
<!DOCTYPE svg PUBLIC "-//W3C//DTD SVG 1.1//EN" "http://www.w3.org/Graphics/SVG/1.1/DTD/svg11.dtd">
<svg version="1.1" id="Capa_1" xmlns="http://www.w3.org/2000/svg" xmlns:xlink="http://www.w3.org/1999/xlink" x="0px" y="0px"
	 width="512px" height="512px" viewBox="0 0 512 512" enable-background="new 0 0 512 512" xml:space="preserve">
<path fill="#0380A5" d="M474.712,69.46c-26.444-31.141-63.04-49.613-103.046-52.018c-43.066-2.586-85.139,13.917-115.433,45.279
	c-0.132,0.136-0.334,0.135-0.465,0c-30.293-31.364-72.366-47.867-115.434-45.279C100.328,19.847,63.733,38.32,37.288,69.46
	C9.726,101.918-3.565,144.955,0.824,187.536c6.698,64.979,44.305,132.11,111.776,199.53
	c52.962,52.921,109.135,90.423,130.829,104.091c3.876,2.441,8.224,3.664,12.571,3.664s8.693-1.221,12.571-3.664
	c21.692-13.668,77.865-51.17,130.828-104.091c67.472-67.42,105.078-134.55,111.776-199.53
	C515.565,144.955,502.274,101.918,474.712,69.46z M496.254,185.998c-6.335,61.46-42.488,125.538-107.458,190.457
	c-14.327,14.316-28.895,27.475-42.927,39.316c-0.106,0.047-0.214,0.088-0.318,0.141c-8.596,4.297-14.045-0.138-15.988-2.244
	c-3.8-4.115-5.72-11.436-1.443-18.514c45.394-75.152,32.823-114.031,32.267-115.649c-1.195-3.47-4.725-5.568-8.344-4.954
	l-23.552,3.986c1.166-67.451-20.976-111.563-40.242-137.026c-22.057-29.147-44.98-40.818-45.945-41.3
	c-2.342-1.172-5.126-1.036-7.345,0.358c-2.217,1.394-3.547,3.843-3.508,6.462c0.739,49.492-24.226,93.717-35.584,111.224
	l-14.261-17.738c-1.51-1.878-3.827-2.921-6.236-2.791c-2.406,0.125-4.605,1.399-5.912,3.424c-0.219,0.339-5.426,8.448-11.306,20.9
	c-1.769,3.746-0.167,8.216,3.579,9.984c3.746,1.77,8.216,0.167,9.984-3.579c1.798-3.808,3.535-7.188,5.056-10.01l13.705,17.047
	c1.424,1.772,3.574,2.801,5.846,2.801c0.026,0,0.053,0,0.079,0c2.3-0.024,4.461-1.102,5.864-2.924
	c1.724-2.239,39.623-52.164,43.825-114.937c8.008,5.902,19.521,15.872,30.695,30.793c18.402,24.578,39.659,68.104,36.42,135.881
	c-0.107,2.269,0.816,4.464,2.516,5.97c1.699,1.507,3.986,2.16,6.229,1.784l25.221-4.268c1.039,12.751-0.673,45.127-31.89,96.807
	c-7.188,11.9-5.877,26.548,3.263,36.447c2.733,2.96,5.883,5.196,9.291,6.687c-8.359,6.636-16.377,12.73-23.867,18.236
	c-5.156-4.338-15.098-17.336-7.557-49.951c7.618-32.947-4.048-55.204-15.176-68.072c-11.938-13.808-25.699-19.83-26.279-20.08
	c-2.551-1.099-5.501-0.696-7.667,1.046c-2.165,1.74-3.189,4.535-2.664,7.264c3.718,19.279-3.415,33.468-10.968,48.487
	c-9.093,18.084-19.4,38.582-8.412,67.75c1.46,3.877,5.789,5.835,9.663,4.376c3.876-1.46,5.834-5.787,4.375-9.664
	c-8.67-23.015-1.048-38.172,7.776-55.723c6.153-12.236,12.94-25.735,13.541-42.456c2.984,2.339,6.222,5.265,9.288,8.812
	c12.878,14.893,16.885,33.356,11.907,54.882c-8.2,35.461,1.547,53.644,9.83,62.226c-13.171,9.306-23.981,16.351-31.048,20.803
	c-2.821,1.775-6.328,1.776-9.149,0c-12.389-7.805-36.254-23.551-64.272-45.575c3.276-1.492,6.282-3.703,8.876-6.617
	c8.966-10.073,9.784-25.161,1.99-36.689l-1.453-2.147c-24.876-36.772-46.36-68.529-38.811-116.184
	c0.618-3.902,1.484-7.982,2.574-12.135c1.052-4.006-1.342-8.107-5.35-9.159c-4.005-1.054-8.107,1.342-9.159,5.349
	c-1.216,4.632-2.186,9.206-2.881,13.598c-8.475,53.501,15.655,89.171,41.202,126.937l1.45,2.144
	c4.607,6.814,2.832,14.272-0.768,18.315c-3.842,4.316-9.551,5.021-15.709,1.974c-14.946-12.481-30.565-26.484-45.912-41.819
	c-64.97-64.921-101.124-129-107.459-190.459c-3.972-38.534,8.047-77.471,32.977-106.827c23.772-27.993,56.627-44.598,92.512-46.753
	c2.767-0.166,5.522-0.249,8.263-0.249c36.14,0,69.784,14.372,95.481,40.976c2.859,2.959,6.876,4.657,11.021,4.657
	c4.146,0,8.164-1.697,11.022-4.657c27.646-28.623,64.495-43.086,103.744-40.727c35.885,2.156,68.74,18.76,92.512,46.753
	C488.207,108.526,500.227,147.464,496.254,185.998z"/>
</svg>
