<?xml version="1.0" encoding="utf-8"?>
<!-- Generator: Adobe Illustrator 16.0.0, SVG Export Plug-In . SVG Version: 6.00 Build 0)  -->
<!DOCTYPE svg PUBLIC "-//W3C//DTD SVG 1.1//EN" "http://www.w3.org/Graphics/SVG/1.1/DTD/svg11.dtd">
<svg version="1.1" id="Capa_1" xmlns="http://www.w3.org/2000/svg" xmlns:xlink="http://www.w3.org/1999/xlink" x="0px" y="0px"
	 width="512px" height="512px" viewBox="0 0 512 512" enable-background="new 0 0 512 512" xml:space="preserve">
<path fill="#0380A5" d="M496.484,152.307h-40.081c-7.638,0-13.987,5.55-15.268,12.826h-19.455c-8.327,0-16.673-0.916-24.805-2.723
	l-31.603-7.023c-9.196-2.044-18.637-3.08-28.06-3.08h-9.586v-10.136c0-26.412-11.922-36.268-24.134-44.099
	c-4.966-3.185-7.932-8.441-7.932-14.062V69.17c4.774-2.649,8.017-7.738,8.017-13.574v-40.08C303.581,6.96,296.62,0,288.064,0
	H167.823c-8.556,0-15.516,6.96-15.516,15.516v40.081c0,7.636,5.55,13.987,12.826,15.267v19.455c0,8.328-0.916,16.673-2.723,24.805
	l-7.023,31.603c-2.044,9.196-3.08,18.636-3.08,28.059v9.586h-10.136c-26.412,0-36.268,11.922-44.099,24.134
	c-3.185,4.966-8.441,7.931-14.061,7.931H69.17c-2.649-4.774-7.738-8.016-13.574-8.016h-40.08C6.96,208.419,0,215.38,0,223.936
	v120.242c0,8.557,6.96,15.516,15.516,15.516h40.081c7.636,0,13.987-5.549,15.267-12.825h19.455c8.328,0,16.673,0.916,24.805,2.723
	l31.603,7.023c9.196,2.044,18.636,3.079,28.059,3.079h9.586v10.137c0,26.412,11.922,36.268,24.134,44.1
	c4.966,3.184,7.931,8.44,7.931,14.061v14.841c-4.774,2.648-8.016,7.738-8.016,13.574v40.081c0,8.556,6.96,15.516,15.516,15.516
	h120.242c8.557,0,15.517-6.96,15.517-15.516v-40.081c0-7.637-5.551-13.987-12.826-15.268v-19.455c0-8.327,0.916-16.673,2.723-24.805
	l7.023-31.603c2.044-9.196,3.08-18.637,3.08-28.06v-9.587h10.136c26.412,0,36.268-11.922,44.099-24.134
	c3.186-4.966,8.441-7.931,14.062-7.931h14.841c2.649,4.774,7.738,8.017,13.574,8.017h40.081c8.556,0,15.516-6.96,15.516-15.517
	V167.823C512,159.267,505.04,152.307,496.484,152.307z M167.307,15.516c0-0.285,0.231-0.516,0.516-0.516h120.241
	c0.285,0,0.517,0.231,0.517,0.516v40.081c0,0.285-0.231,0.516-0.517,0.516h-16.028c-4.142,0-7.5,3.358-7.5,7.5
	c0,4.142,3.358,7.5,7.5,7.5h8.528v12.898c0,10.754,5.545,20.731,14.834,26.688c10.408,6.675,17.23,12.471,17.23,31.472v10.136
	h-87.09c-12.976,0-23.532,10.557-23.532,23.532c0,3.009,0.574,5.885,1.608,8.532h-10.14c-12.976,0-23.532,10.557-23.532,23.532
	c0,3.009,0.574,5.885,1.608,8.532h-3.727c-0.173,0-0.344,0.009-0.516,0.013v-41.664c0-8.33,0.916-16.675,2.723-24.805l7.023-31.603
	c2.044-9.198,3.08-18.639,3.08-28.059V71.113h59.838c4.142,0,7.5-3.358,7.5-7.5c0-4.142-3.358-7.5-7.5-7.5h-72.148
	c-0.285,0-0.516-0.231-0.516-0.516L167.307,15.516L167.307,15.516z M280.564,324.385v0.553c0,4.705-3.828,8.533-8.532,8.533
	s-8.532-3.828-8.532-8.533v-29.375h10.434c-1.74,3.547-2.721,7.53-2.721,11.739C271.212,314.468,274.948,320.766,280.564,324.385z
	 M248.5,324.939v19.237c0,4.705-3.828,8.532-8.532,8.532c-4.704,0-8.532-3.828-8.532-8.532v-25.651v-22.961H248.5V324.939z
	 M216.436,318.525c0,4.705-3.828,8.533-8.532,8.533c-4.704,0-8.532-3.828-8.532-8.533v-22.961h17.064V318.525z M167.307,284.796
	c3.599,5.55,9.466,9.498,16.282,10.511c-1.364,2.963-4.361,4.965-7.75,4.965c-4.705,0-8.532-3.828-8.532-8.532V284.796z
	 M149.98,341.971l-31.603-7.022c-9.198-2.044-18.639-3.08-28.059-3.08H71.113V272.03c0-4.142-3.358-7.5-7.5-7.5
	c-4.142,0-7.5,3.358-7.5,7.5v72.147c0,0.285-0.231,0.516-0.516,0.516H15.516c-0.285,0-0.516-0.23-0.516-0.516V223.936
	c0-0.285,0.231-0.516,0.516-0.516h40.081c0.285,0,0.516,0.231,0.516,0.516v16.029c0,4.142,3.358,7.5,7.5,7.5
	c4.142,0,7.5-3.358,7.5-7.5v-8.529h12.898c10.754,0,20.731-5.545,26.688-14.833c6.675-10.409,12.471-17.231,31.472-17.231h10.136
	v22.927c-4.909,4.316-8.016,10.635-8.016,17.67c0,7.035,3.107,13.354,8.016,17.67v34.102c0,12.976,10.557,23.531,23.532,23.531
	c2.994,0,5.871-0.58,8.532-1.619v4.875c0,12.976,10.557,23.531,23.532,23.531c3.009,0,5.885-0.574,8.532-1.607v3.727
	c0,0.174,0.009,0.344,0.013,0.516h-41.664C166.455,344.693,158.109,343.777,149.98,341.971z M344.693,337.215
	c0,8.33-0.916,16.676-2.724,24.805l-7.022,31.604c-2.044,9.197-3.08,18.639-3.08,28.059v19.206h-59.838c-4.143,0-7.5,3.358-7.5,7.5
	c0,4.143,3.357,7.5,7.5,7.5h72.147c0.285,0,0.517,0.231,0.517,0.517v40.081c0,0.284-0.231,0.516-0.517,0.516H223.936
	c-0.285,0-0.516-0.231-0.516-0.516v-40.081c0-0.285,0.231-0.517,0.516-0.517h16.029c4.142,0,7.5-3.357,7.5-7.5
	c0-4.142-3.358-7.5-7.5-7.5h-8.529V427.99c0-10.754-5.545-20.731-14.833-26.688c-10.409-6.675-17.231-12.471-17.231-31.472v-10.137
	h22.927c4.316,4.91,10.635,8.017,17.67,8.017c12.087,0,22.071-9.162,23.383-20.906c2.688,1.072,5.615,1.667,8.682,1.667
	c12.066,0,22.033-9.129,23.374-20.842h49.287L344.693,337.215L344.693,337.215z M497,288.064c0,0.285-0.231,0.516-0.516,0.516
	h-40.081c-0.285,0-0.517-0.23-0.517-0.516v-16.029c0-4.143-3.357-7.5-7.5-7.5c-4.142,0-7.5,3.357-7.5,7.5v8.529h-12.897
	c-10.754,0-20.731,5.545-26.688,14.832c-6.675,10.41-12.471,17.231-31.472,17.231h-78.291c-2.937,0-5.326-2.389-5.326-5.326
	c0-6.473,5.267-11.739,11.739-11.739h26.987c4.142,0,7.5-3.357,7.5-7.5c0-4.142-3.358-7.5-7.5-7.5H187.061
	c-4.705,0-8.532-3.828-8.532-8.531c0-4.704,3.828-8.532,8.532-8.532h99.4c4.143,0,7.5-3.358,7.5-7.5c0-4.142-3.357-7.5-7.5-7.5
	H167.823c-4.705,0-8.532-3.828-8.532-8.532s3.828-8.532,8.532-8.532h118.639c4.142,0,7.5-3.358,7.5-7.5s-3.358-7.5-7.5-7.5h-92.987
	c-4.705,0-8.532-3.828-8.532-8.532c0-4.704,3.828-8.532,8.532-8.532h99.4c4.143,0,7.5-3.358,7.5-7.5c0-4.142-3.357-7.5-7.5-7.5
	H225.54c-4.705,0-8.532-3.828-8.532-8.532s3.828-8.532,8.532-8.532h111.677c8.33,0,16.675,0.916,24.806,2.723l31.603,7.023
	c9.198,2.044,18.639,3.08,28.059,3.08h19.206v59.838c0,4.142,3.358,7.5,7.5,7.5c4.143,0,7.5-3.358,7.5-7.5v-72.147
	c0-0.285,0.231-0.516,0.517-0.516h40.081c0.284,0,0.516,0.231,0.516,0.516v120.241H497z"/>
</svg>
