<?xml version="1.0" encoding="utf-8"?>
<!-- Generator: Adobe Illustrator 16.0.0, SVG Export Plug-In . SVG Version: 6.00 Build 0)  -->
<!DOCTYPE svg PUBLIC "-//W3C//DTD SVG 1.1//EN" "http://www.w3.org/Graphics/SVG/1.1/DTD/svg11.dtd">
<svg version="1.1" id="Capa_1" xmlns="http://www.w3.org/2000/svg" xmlns:xlink="http://www.w3.org/1999/xlink" x="0px" y="0px"
	 width="512px" height="512px" viewBox="0 0 512 512" enable-background="new 0 0 512 512" xml:space="preserve">
<g>
	<path fill="#0380A5" d="M15,91c8.284,0,15-6.716,15-15V30h46c8.284,0,15-6.716,15-15S84.284,0,76,0H15C6.716,0,0,6.716,0,15v61
		C0,84.284,6.716,91,15,91z"/>
	<path fill="#0380A5" d="M15,512h61c8.284,0,15-6.716,15-15s-6.716-15-15-15H30v-46c0-8.284-6.716-15-15-15s-15,6.716-15,15v61
		C0,505.284,6.716,512,15,512z"/>
	<path fill="#0380A5" d="M497,91c8.284,0,15-6.716,15-15V15c0-8.284-6.716-15-15-15h-61c-8.284,0-15,6.716-15,15s6.716,15,15,15h46
		v46C482,84.284,488.716,91,497,91z"/>
	<path fill="#0380A5" d="M497,421c-8.284,0-15,6.716-15,15v46h-46c-8.284,0-15,6.716-15,15s6.716,15,15,15h61
		c8.284,0,15-6.716,15-15v-61C512,427.716,505.284,421,497,421z"/>
	<path fill="#0380A5" d="M256,361c57.897,0,105-47.104,105-105c0-57.897-47.103-105-105-105c-57.897,0-105,47.103-105,105
		C151,313.896,198.103,361,256,361z M256,181c41.355,0,75,33.645,75,75c0,41.355-33.645,75-75,75c-41.355,0-75-33.645-75-75
		C181,214.645,214.645,181,256,181z"/>
	<path fill="#0380A5" d="M256,301c24.813,0,45-20.188,45-45c0-24.813-20.188-45-45-45c-24.813,0-45,20.187-45,45
		C211,280.813,231.187,301,256,301z M256,241c8.271,0,15,6.729,15,15c0,8.271-6.729,15-15,15c-8.271,0-15-6.729-15-15
		C241,247.729,247.729,241,256,241z"/>
	<path fill="#0380A5" d="M76.023,342.381C126.615,385.814,189.1,421,256,421c66.903,0,129.389-35.189,179.977-78.619
		c44.518-38.216,72.029-76.003,73.181-77.593c3.793-5.246,3.793-12.332,0-17.577c-1.149-1.59-28.663-39.377-73.181-77.593
		C385.385,126.186,322.9,91,256,91c-66.903,0-129.389,35.19-179.977,78.619c-44.516,38.216-72.029,76.003-73.179,77.593
		c-3.793,5.246-3.793,12.332,0,17.577C3.994,266.378,31.508,304.166,76.023,342.381L76.023,342.381z M256,121
		c63.673,0,122.116,38.583,159.933,70.951c29.612,25.345,51.609,51.001,62.095,64.044c-10.343,12.847-31.897,37.957-61.025,63.071
		C375.292,355.027,318.06,391,256,391c-63.673,0-122.116-38.583-159.933-70.951c-29.614-25.347-51.612-51.004-62.093-64.044
		C44.315,243.158,65.872,218.049,95,192.934C136.708,156.972,193.94,121,256,121L256,121z"/>
</g>
</svg>
